<?xml version="1.0" encoding="utf-8"?>
<!-- Generator: Adobe Illustrator 17.0.0, SVG Export Plug-In . SVG Version: 6.00 Build 0)  -->
<!DOCTYPE svg PUBLIC "-//W3C//DTD SVG 1.1//EN" "http://www.w3.org/Graphics/SVG/1.1/DTD/svg11.dtd">
<svg version="1.1" id="Capa_1" xmlns="http://www.w3.org/2000/svg" xmlns:xlink="http://www.w3.org/1999/xlink" x="0px" y="0px"
	 width="40px" height="40px" viewBox="0 0 40 40" enable-background="new 0 0 40 40" xml:space="preserve">
<g>
	<path fill="#FFFFFF" d="M25.469,27.956c-2.227,0-4.456,0-6.687,0c0.598,2.077-0.67,3.734-2.06,4.2
		c-1.581,0.53-3.252-0.145-4.002-1.593c-0.774-1.493-0.377-3.542,1.413-4.546c-0.191-0.506-0.382-1.015-0.574-1.524
		c-0.663-1.757-1.326-3.515-1.989-5.272c-0.863-2.286-1.727-4.572-2.59-6.858c-0.289-0.764-0.58-1.527-0.861-2.295
		c-0.045-0.12-0.11-0.136-0.218-0.136C7.018,9.935,6.134,9.935,5.25,9.934C4.767,9.933,4.385,9.729,4.178,9.293
		C3.983,8.881,4.004,8.458,4.301,8.085c0.204-0.256,0.465-0.43,0.805-0.431c1.277-0.003,2.553-0.012,3.83,0.005
		c0.424,0.006,0.752,0.242,0.91,0.638c0.348,0.869,0.672,1.747,1.005,2.621c0.085,0.222,0.16,0.448,0.256,0.664
		c0.027,0.058,0.108,0.103,0.174,0.128c0.055,0.021,0.125,0.004,0.188,0.004c7.253,0,14.506,0,21.758,0
		c0.678,0,1.112,0.356,1.213,1.024c0.024,0.158-0.007,0.336-0.054,0.492c-0.638,2.09-1.283,4.178-1.926,6.267
		c-0.369,1.201-0.747,2.4-1.099,3.606c-0.17,0.584-0.601,0.949-1.303,0.947c-4.702-0.015-9.404-0.009-14.106-0.01
		c-0.04,0-0.08,0.005-0.147,0.009c0.205,0.544,0.404,1.07,0.61,1.617c0.091,0,0.18,0,0.269,0c3.956,0,7.912,0.013,11.868-0.006
		c1.624-0.008,3.08,1.155,3.319,2.807c0.2,1.381-0.272,2.529-1.432,3.315c-1.065,0.721-2.226,0.778-3.359,0.159
		c-1.242-0.678-1.791-1.78-1.741-3.181C25.346,28.497,25.421,28.237,25.469,27.956z M12.029,14.015
		c0.015,0.051,0.023,0.09,0.037,0.127c0.403,1.071,0.81,2.14,1.206,3.214c0.052,0.141,0.137,0.147,0.256,0.147
		c1.605-0.002,3.21-0.001,4.815-0.001c0.067,0,0.133,0,0.221,0c-0.09-1.182-0.177-2.33-0.265-3.487
		C16.201,14.015,14.122,14.015,12.029,14.015z M25.677,17.482c0.057,0.01,0.083,0.018,0.11,0.018c1.598,0.001,3.195,0,4.793,0.004
		c0.116,0,0.151-0.05,0.182-0.151c0.327-1.073,0.66-2.144,0.99-3.216c0.011-0.036,0.008-0.076,0.011-0.112
		c-0.028-0.009-0.041-0.017-0.054-0.017c-1.871-0.002-3.742-0.002-5.613-0.006c-0.121,0-0.162,0.053-0.167,0.159
		c-0.008,0.161-0.012,0.322-0.025,0.482C25.831,15.583,25.754,16.522,25.677,17.482z M24.821,14.021c-1.805,0-3.588,0-5.388,0
		c0.089,1.165,0.177,2.313,0.266,3.47c1.621,0,3.224,0,4.845,0C24.636,16.337,24.728,15.188,24.821,14.021z M24.217,21.748
		c0.08-1.036,0.16-2.061,0.24-3.096c-1.575,0-3.116,0-4.665,0c0.078,1.04,0.156,2.068,0.233,3.096
		C21.436,21.748,22.82,21.748,24.217,21.748z M13.763,18.642c0.398,1.056,0.787,2.085,1.172,3.105c1.328,0,2.636,0,3.948,0
		c0-0.082,0.005-0.151-0.001-0.22c-0.069-0.892-0.145-1.784-0.204-2.677c-0.011-0.167-0.056-0.21-0.219-0.209
		c-1.092,0.006-2.184,0.002-3.276,0.001C14.719,18.641,14.255,18.642,13.763,18.642z M25.353,21.759c0.111,0,0.193,0,0.276,0
		c1.191,0,2.383-0.005,3.574,0.004c0.166,0.001,0.229-0.054,0.274-0.204c0.272-0.909,0.554-1.814,0.831-2.721
		c0.017-0.057,0.027-0.117,0.042-0.182c-1.597,0-3.174,0-4.763,0C25.51,19.688,25.433,20.703,25.353,21.759z M28.634,30.052
		c0.565,0,1.031-0.475,1.03-1.05c-0.001-0.584-0.474-1.057-1.053-1.055c-0.573,0.003-1.033,0.485-1.027,1.078
		C27.59,29.601,28.051,30.052,28.634,30.052z M15.63,30.052c0.584,0.003,1.045-0.462,1.043-1.054
		c-0.002-0.579-0.462-1.048-1.032-1.051c-0.568-0.003-1.039,0.467-1.042,1.041C14.595,29.586,15.043,30.049,15.63,30.052z"/>
</g>
<image overflow="visible" enable-background="new    " width="1683" height="1782" xlink:href="A6EA2FB6.png"  transform="matrix(0.0096 0 0 0.0091 49.8929 20.0085)">
</image>
<path fill="#FFFFFF" d="M64.033,27.98c0,3.51-2.845,6.355-6.355,6.355s-6.355-2.845-6.355-6.355s2.845-6.355,6.355-6.355
	C61.188,21.625,64.033,24.47,64.033,27.98"/>
<g>
	<path fill="#8F384E" d="M56.048,31.569c-0.476-0.307-0.852-0.754-1.126-1.343c-0.275-0.588-0.412-1.287-0.412-2.096
		c0-0.808,0.137-1.507,0.412-2.095c0.274-0.588,0.65-1.036,1.126-1.343c0.476-0.307,1.018-0.46,1.625-0.46
		c0.606,0,1.15,0.153,1.63,0.46s0.857,0.755,1.132,1.343c0.274,0.588,0.412,1.287,0.412,2.095c0,0.809-0.137,1.507-0.412,2.096
		c-0.274,0.588-0.652,1.036-1.132,1.343c-0.48,0.307-1.023,0.46-1.63,0.46S56.524,31.876,56.048,31.569z M58.956,30.134
		c0.314-0.448,0.471-1.115,0.471-2.004c0-0.888-0.157-1.556-0.471-2.003c-0.314-0.448-0.742-0.671-1.283-0.671
		c-0.534,0-0.958,0.224-1.272,0.671c-0.314,0.448-0.471,1.115-0.471,2.003s0.157,1.556,0.471,2.004s0.738,0.671,1.272,0.671
		C58.214,30.805,58.642,30.582,58.956,30.134z"/>
</g>
</svg>
